# ProBuilder 5.0.3
# https://unity3d.com/unity/features/worldbuilding/probuilder
# 9/1/2022 11:17:34 PM

mtllib ./PortalGun.mtl
o PortalGun

g PortalGun
v 0.01752508 0.03876722 0.05477726
v -0.04752504 0.03876722 0.05477726
v 0.01752508 0.04771483 0.05477726
v -0.04752504 0.04771483 0.05477726
v -0.04999995 0.0364821 0.06443429
v -0.04999995 0.0364821 -0.05
v -0.04999995 0.04999996 0.06443429
v -0.04999995 0.04999996 -0.03999999
v 0.01999998 0.0364821 -0.05
v 0.01999998 0.0364821 0.06443429
v 0.01999998 0.04999996 -0.03999999
v 0.01999998 0.04999996 0.06443429
v 0.01999998 0.02769018 -0.05
v -0.04999995 0.02769018 -0.05
v 0.01999998 0.02769018 0.05932903
v -0.04999995 0.02769018 0.05932903
v -0.002336976 -0.02258944 -0.1201546
v -0.02766299 -0.02258944 -0.1201546
v -0.002336976 -0.02878737 -0.1132003
v -0.02766299 -0.02878737 -0.1132003
v -0.001413938 0.0364821 -0.05390005
v -0.02858603 0.0364821 -0.05390005
v -0.001413938 0.02573157 -0.05402322
v -0.02858603 0.02573157 -0.05402322
v -0.04528558 0.03827083 -0.04871103
v 0.01528561 0.03827083 -0.04871103
v -0.04528558 0.04821122 -0.04128897
v 0.01528561 0.04821122 -0.04128897
v -0.04528558 0.03778947 -0.04805057
v 0.01528561 0.03778947 -0.04805057
v -0.04528558 0.04772985 -0.04062851
v 0.01528561 0.04772985 -0.04062851
v 0.01752508 0.03876722 0.06443429
v -0.04752504 0.03876722 0.06443429
v 0.01752508 0.04771483 0.06443429
v -0.04752504 0.04771483 0.06443429
v -0.003695484 0.0323999 -0.06552933
v -0.02630436 0.0323999 -0.06552933
v -0.003695485 0.02244103 -0.05876683
v -0.02630436 0.02244103 -0.05876683
v 0.003335122 -0.01779055 -0.118394
v -0.03333509 -0.01779055 -0.118394
v 0.003335122 -0.02872347 -0.1084478
v -0.03333509 -0.02872347 -0.1084478

vt 0.01752508 0.03876722
vt -0.04752504 0.03876722
vt 0.01752508 0.04771483
vt -0.04752504 0.04771483
vt 0.06443429 0.0364821
vt -0.05 0.0364821
vt 0.06443429 0.04999996
vt -0.03999999 0.04999996
vt 0.05 0.0364821
vt -0.06443429 0.0364821
vt 0.03999999 0.04999996
vt -0.06443429 0.04999996
vt -0.01999998 0.06443429
vt 0.04999995 0.06443429
vt -0.01999998 -0.03999999
vt 0.04999995 -0.03999999
vt 0.01999998 -0.05
vt -0.04999995 -0.05
vt 0.01999998 0.05932903
vt -0.04999995 0.05932903
vt -0.002336976 -0.07467037
vt -0.02766299 -0.07467037
vt -0.002336976 -0.06535497
vt -0.02766299 -0.06535497
vt -0.05932903 0.02769018
vt 0.05 0.02769018
vt -0.05 0.02769018
vt 0.05932903 0.02769018
vt -0.04999995 0.06390492
vt 0.01999998 0.06390492
vt -0.04999995 0.05373823
vt 0.01999998 0.05373823
vt -0.01999998 -0.05
vt 0.04999995 -0.05
vt 0.001413938 -0.05390005
vt 0.02858603 -0.05390005
vt -0.01042367 0.02769018
vt -0.01042367 0.0364821
vt 0.01136492 0.02573157
vt 0.01134218 0.0364821
vt 0.0402318 0.0364821
vt 0.0402318 0.02769018
vt 0.01846562 0.0364821
vt 0.01844355 0.02573157
vt -0.04999995 -0.03283542
vt 0.01999998 -0.03283542
vt -0.02858603 -0.03731007
vt -0.001413938 -0.03731007
vt 0.04999995 0.0003667309
vt -0.01999998 0.0003667309
vt 0.04528558 0.0025715
vt -0.01528561 0.0025715
vt 0.0502893 0.01662533
vt 0.05036197 -0.0001891682
vt 0.04558442 0.01440037
vt 0.04563836 0.001995035
vt -0.01970866 0.01632278
vt -0.01493108 0.001733242
vt -0.01498504 0.01413858
vt -0.01999998 0.01717974
vt 0.04999995 0.01717974
vt -0.01528561 0.01497496
vt 0.04528558 0.01497496
vt 0.04528558 -0.0619065
vt -0.01528561 -0.0619065
vt 0.04528558 -0.06108923
vt -0.01528561 -0.06108923
vt 0.04128897 0.04821122
vt 0.04871103 0.03827083
vt 0.04062851 0.04772985
vt 0.04805057 0.03778947
vt -0.04871103 0.03827083
vt -0.04128897 0.04821122
vt -0.04805057 0.03778947
vt -0.04062851 0.04772985
vt 0.01528561 -0.06176331
vt -0.04528558 -0.06176331
vt 0.01528561 -0.06094604
vt -0.04528558 -0.06094604
vt 0.01999998 0.0364821
vt 0.01999998 0.04999996
vt -0.04999995 0.04999996
vt -0.01752508 0.06443429
vt 0.04752504 0.06443429
vt -0.01752508 0.05477726
vt 0.04752504 0.05477726
vt 0.06443429 0.04771483
vt 0.06443429 0.03876722
vt 0.05477726 0.04771483
vt 0.05477726 0.03876722
vt -0.06443429 0.03876722
vt -0.06443429 0.04771483
vt -0.05477726 0.03876722
vt -0.05477726 0.04771483
vt -0.04752504 0.06443429
vt 0.01752508 0.06443429
vt -0.04752504 0.05477726
vt 0.01752508 0.05477726
vt 0.001413938 -0.0387743
vt 0.02858603 -0.0387743
vt 0.003695484 -0.05109926
vt 0.02630436 -0.05109926
vt 0.04922812 0.0256198
vt 0.04911729 0.03637047
vt 0.05449186 0.02232923
vt 0.06057691 0.03227322
vt -0.04735867 0.03639683
vt -0.04747952 0.02564627
vt -0.05920966 0.03231462
vt -0.05257467 0.02235867
vt -0.02858603 -0.02972275
vt -0.001413938 -0.02972275
vt -0.02630436 -0.03549591
vt -0.003695485 -0.03549591
vt 0.003695484 -0.02521448
vt 0.02630436 -0.02521448
vt -0.003335122 -0.09811001
vt 0.03333509 -0.09811001
vt 0.05825741 0.0228871
vt 0.06499659 0.03286176
vt 0.1083505 -0.02835859
vt 0.1182624 -0.01739654
vt -0.06743626 0.03120729
vt -0.06069576 0.02123352
vt -0.1206956 -0.01905828
vt -0.1107818 -0.03001867
vt -0.02630436 -0.0248388
vt -0.003695485 -0.0248388
vt -0.03333509 -0.09615506
vt 0.003335122 -0.09615506
vt -0.003335122 -0.05747972
vt 0.03333509 -0.05747972
vt 0.002336976 -0.06259137
vt 0.02766299 -0.06259137
vt 0.06760195 0.02477749
vt 0.07403528 0.03808418
vt 0.07500172 0.02469972
vt 0.07949986 0.03281537
vt -0.06422889 0.04001527
vt -0.0569305 0.02716268
vt -0.06937428 0.03437376
vt -0.06427129 0.0266176
vt -0.03333509 -0.1088242
vt 0.003335122 -0.1088242
vt -0.02766299 -0.1135771
vt -0.002336976 -0.1135771
vt 0.04528558 0.001532189
vt -0.01528561 0.001532189
vt 0.04528558 0.01393776
vt -0.01528561 0.01393776

vn 0 0 1
vn -1 0 0
vn 1 0 0
vn 0 1 0
vn 0 -1 0
vn 0 -0.7465388 -0.6653419
vn 0 -0.5021553 0.8647774
vn 0.1846483 0 -0.9828047
vn 0.1819082 0.005635624 -0.9832793
vn 0.179168 0.01127125 -0.9837539
vn -0.1791794 0 -0.9838164
vn -0.1814105 0.005630897 -0.9833726
vn -0.1836415 0.01126179 -0.9829288
vn 0 -0.8991151 0.4377123
vn 0 0.5846261 -0.8113029
vn 0.002922386 0.5896818 -0.8076304
vn -0.0005185575 0.5905806 -0.8069785
vn -0.001039637 0.5965031 -0.80261
vn -0.007921312 0.5982655 -0.8012587
vn 0 0.8081364 0.5889953
vn 0 -0.8081364 -0.5889953
vn 0 0.9435555 -0.3312143
vn 0.8998107 0.004998307 -0.4362519
vn 0.940982 -0.05033022 -0.2959256
vn 0.9821533 -0.1056587 -0.1555993
vn -0.9811417 0.002214453 -0.1932774
vn -0.9555687 -0.1021376 -0.2486832
vn -0.9299957 -0.2064897 -0.3040889
vn 0 -0.821665 0.5699708
vn 0 0.7252119 -0.6885258
vn 0.9949718 0.05626464 0.08285867
vn 0.9951754 0.06044137 0.07694364
vn 0.9953791 0.0646181 0.07102862
vn -0.995257 0.05464904 0.08047939
vn -0.9952071 0.06039817 0.07659446
vn -0.9951572 0.06614731 0.07270953
vn 0 -0.6966294 0.7174311
vn 0 0.3444236 -0.9388144
vn 0.5314289 -0.5700482 -0.6266006
vn 0.5868896 -0.571102 -0.5682631
vn 0.6423503 -0.5721558 -0.5099255
vn -0.6241887 -0.5257492 -0.5779068
vn -0.5583405 -0.5877373 -0.5784825
vn -0.4924923 -0.6497253 -0.5790582
vn 0 -0.9999096 0.01344366
vn 0 0.5982844 -0.8012839

usemtl clipping_white
f 7/7/2 8/8/2 6/6/2
f 14/27/2 16/28/2 5/5/2
f 5/5/2 7/7/2 6/6/2
f 6/6/2 14/27/2 5/5/2
f 12/12/3 10/10/3 9/9/3
f 9/9/3 11/11/3 12/12/3
f 8/16/4 7/14/4 12/13/4
f 12/13/4 11/15/4 8/16/4
f 16/20/5 14/18/5 13/17/5
f 13/17/5 15/19/5 16/20/5
f 20/24/6 18/22/6 17/21/6
f 17/21/6 19/23/6 20/24/6
f 13/26/3 9/9/3 10/10/3
f 10/10/3 15/25/3 13/26/3
f 15/32/7 10/30/7 5/29/7
f 5/29/7 16/31/7 15/32/7
f 22/36/4 6/34/4 9/33/4
f 9/33/4 21/35/4 22/36/4
f 21/40/10 9/38/9 13/37/8
f 13/37/8 23/39/9 21/40/10
f 24/44/13 14/42/12 6/41/11
f 6/41/11 22/43/12 24/44/13
f 23/48/14 13/46/14 14/45/14
f 14/45/14 24/47/14 23/48/14
f 26/52/17 9/50/16 6/49/15
f 6/49/15 25/51/15 26/52/17
f 25/56/19 6/54/18 8/53/16
f 8/53/16 27/55/17 25/56/19
f 28/59/19 11/57/18 9/50/16
f 9/50/16 26/58/17 28/59/19
f 27/63/17 8/61/16 11/60/15
f 11/60/15 28/62/15 27/63/17
f 30/67/20 26/65/20 25/64/20
f 25/64/20 29/66/20 30/67/20
f 29/71/3 25/69/3 27/68/3
f 27/68/3 31/70/3 29/71/3
f 32/75/2 28/73/2 26/72/2
f 26/72/2 30/74/2 32/75/2
f 31/79/21 27/77/21 28/76/21
f 28/76/21 32/78/21 31/79/21
f 34/2/1 5/6/1 10/80/1
f 10/80/1 33/1/1 34/2/1
f 33/1/1 10/80/1 12/81/1
f 12/81/1 35/3/1 33/1/1
f 36/4/1 7/82/1 5/6/1
f 5/6/1 34/2/1 36/4/1
f 35/3/1 12/81/1 7/82/1
f 7/82/1 36/4/1 35/3/1
f 2/86/4 34/84/4 33/83/4
f 33/83/4 1/85/4 2/86/4
f 1/90/2 33/88/2 35/87/2
f 35/87/2 3/89/2 1/90/2
f 4/94/3 36/92/3 34/91/3
f 34/91/3 2/93/3 4/94/3
f 3/98/5 35/96/5 36/95/5
f 36/95/5 4/97/5 3/98/5
f 38/102/22 22/100/22 21/99/22
f 21/99/22 37/101/22 38/102/22
f 37/106/25 21/104/24 23/103/23
f 23/103/23 39/105/24 37/106/25
f 40/110/28 24/108/27 22/107/26
f 22/107/26 38/109/27 40/110/28
f 39/114/29 23/112/29 24/111/29
f 24/111/29 40/113/29 39/114/29
f 42/118/30 38/116/30 37/115/30
f 37/115/30 41/117/30 42/118/30
f 41/122/33 37/120/32 39/119/31
f 39/119/31 43/121/32 41/122/33
f 44/126/36 40/124/35 38/123/34
f 38/123/34 42/125/35 44/126/36
f 43/130/37 39/128/37 40/127/37
f 40/127/37 44/129/37 43/130/37
f 18/134/38 42/132/38 41/131/38
f 41/131/38 17/133/38 18/134/38
f 17/138/41 41/136/40 43/135/39
f 43/135/39 19/137/40 17/138/41
f 20/142/44 44/140/43 42/139/42
f 42/139/42 18/141/43 20/142/44
f 19/146/45 43/144/45 44/143/45
f 44/143/45 20/145/45 19/146/45

usemtl clipping_red_emission
f 31/149/46 32/150/46 30/148/46 29/147/46

usemtl clipping_green
f 3/3/1 4/4/1 2/2/1 1/1/1

