# ProBuilder 5.0.3
# https://unity3d.com/unity/features/worldbuilding/probuilder
# 7/30/2022 11:46:17 AM

mtllib ./PortalCilinder64_outline01_open.mtl
o PortalCilinder64_outline01_open

g PortalCilinder64_outline01_open
v -0.4933386 0.3505706 0.01249981
v -0.5250001 0 0.01249981
v -0.4933386 0.3505706 -0.01249981
v -0.5250001 0 -0.01249981
v -0.5 0 0.01249981
v -0.4687619 0.3459887 0.01249981
v -0.5 0 -0.01249981
v -0.4687619 0.3459887 -0.01249981
v -0.4021735 0.6588573 0.01249981
v -0.4021735 0.6588573 -0.01249981
v -0.3792048 0.6489858 0.01249981
v -0.3792048 0.6489858 -0.01249981
v -0.2624998 0.8876759 0.01250029
v -0.2624998 0.8876759 -0.01249981
v -0.2437987 0.871085 0.01250029
v -0.2437987 0.871085 -0.01249981
v -0.09116554 1.009428 0.01250029
v -0.09116554 1.009428 -0.01249981
v -0.08302736 0.9857892 0.01250029
v -0.08302736 0.9857892 -0.01249981
v 0.09116507 1.009428 0.01250029
v 0.09116507 1.009428 -0.01249981
v 0.08302736 0.9857892 0.01250029
v 0.08302736 0.9857892 -0.01249981
v 0.2624998 0.8876759 0.01250029
v 0.2624998 0.8876759 -0.01249981
v 0.2437987 0.871085 0.01250029
v 0.2437987 0.871085 -0.01249981
v 0.4021735 0.6588573 0.01249981
v 0.4021735 0.6588573 -0.01249981
v 0.3792048 0.6489858 0.01249981
v 0.3792048 0.6489858 -0.01249981
v 0.4933386 0.3505706 0.01249981
v 0.4933386 0.3505706 -0.01249981
v 0.4687619 0.3459892 0.01249981
v 0.4687619 0.3459892 -0.01249981
v 0.5250001 0 0.01249981
v 0.5250001 0 -0.01249981
v 0.5 0 0.01249981
v 0.5 0 -0.01249981
v 0.4933386 -0.3505706 0.01249981
v 0.4933386 -0.3505706 -0.01249981
v 0.4687619 -0.3459892 0.01249981
v 0.4687619 -0.3459892 -0.01249981
v 0.4021735 -0.6588573 0.01249981
v 0.4021735 -0.6588573 -0.01249981
v 0.3792048 -0.6489858 0.01249981
v 0.3792048 -0.6489858 -0.01249981
v 0.3412497 -1.032756 0.01249981
v 0.3412497 -1.032756 -0.01250029
v 0.3169383 -1.016165 0.01249981
v 0.3169383 -1.016165 -0.01250029
v -0.402173 -0.6588573 0.01249981
v -0.3412497 -1.032756 0.01249981
v -0.402173 -0.6588573 -0.01249981
v -0.3412497 -1.032756 -0.01250029
v -0.3169383 -1.016165 0.01249981
v -0.3792048 -0.6489858 0.01249981
v -0.3169383 -1.016165 -0.01250029
v -0.3792048 -0.6489858 -0.01249981
v -0.4933386 -0.3505706 0.01249981
v -0.4933386 -0.3505706 -0.01249981
v -0.4687619 -0.3459892 0.01249981
v -0.4687619 -0.3459892 -0.01249981

vt 0.01249981 0.3047747
vt 0.01249981 -0.04722277
vt -0.01249981 0.3047747
vt -0.01249981 -0.04722277
vt -0.01249981 -0.04496033
vt -0.01249981 0.3024357
vt 0.01249981 -0.04496033
vt 0.01249981 0.3024357
vt 0.01249981 0.5177642
vt 0.01249981 0.1962806
vt -0.01249981 0.5177642
vt -0.01249981 0.1962806
vt -0.01249981 0.1989287
vt -0.01249981 0.514884
vt 0.01249981 0.1989287
vt 0.01249981 0.514884
vt 0.01250029 0.6209066
vt 0.01249981 0.352827
vt -0.01249981 0.6209066
vt -0.01249981 0.352827
vt -0.01249981 0.356729
vt -0.01250029 0.6168498
vt 0.01249981 0.356729
vt 0.01249981 0.6168498
vt -0.5104008 0.01249688
vt -0.3002129 0.01249688
vt -0.5104009 -0.01250321
vt -0.3002129 -0.01250321
vt 0.3074561 0.01250029
vt 0.5049517 0.01250029
vt 0.3074561 -0.01249981
vt 0.5049517 -0.01249981
vt -0.09116507 0.01249547
vt 0.09116554 0.01249547
vt -0.09116507 -0.01250462
vt 0.09116554 -0.01250462
vt -0.08302736 0.01250029
vt 0.08302736 0.01250029
vt -0.08302736 -0.01249981
vt 0.08302736 -0.01249981
vt 0.3002116 0.01250029
vt 0.5104 0.01250029
vt 0.3002116 -0.01249981
vt 0.5104001 -0.01249981
vt -0.5049517 0.01250029
vt -0.3074561 0.01250029
vt -0.5049517 -0.01249981
vt -0.3074561 -0.01249981
vt -0.01250029 0.6209067
vt 0.01249981 0.6209067
vt 0.01250029 0.6168498
vt -0.01249981 0.6168498
vt -0.01249981 -0.3047747
vt -0.01249981 0.04722277
vt 0.01249981 -0.3047747
vt 0.01249981 0.04722277
vt 0.01249981 0.04496027
vt 0.01249981 -0.3024363
vt -0.01249981 0.04496027
vt -0.01249981 -0.3024363
vt -0.01249981 -0.5177642
vt -0.01249981 -0.1962806
vt 0.01249981 -0.5177642
vt 0.01249981 -0.1962806
vt 0.01249981 -0.198929
vt 0.01249981 -0.5148838
vt -0.01249981 -0.198929
vt -0.01249981 -0.5148838
vt -0.01249981 -0.9644327
vt -0.01249981 -0.5856033
vt 0.01250029 -0.9644327
vt 0.01249981 -0.5856033
vt 0.01249981 -0.5764501
vt 0.01249981 -0.9488711
vt -0.01249981 -0.5764501
vt -0.01250029 -0.9488711
vt 0.01249981 -0.9644334
vt -0.01250029 -0.9644334
vt -0.01249981 -0.9488711
vt 0.01250029 -0.9488711
vt -0.5250001 0
vt -0.4933386 0.3505706
vt -0.5 0
vt -0.4687619 0.3459887
vt 0.4933386 0.3505706
vt 0.5250001 0
vt 0.4687619 0.3459887
vt 0.5 0
vt -0.4021735 0.6588573
vt -0.3792048 0.6489858
vt 0.4021735 0.6588573
vt 0.3792048 0.6489858
vt -0.2624998 0.8876759
vt -0.2437987 0.871085
vt 0.2624998 0.8876759
vt 0.2437987 0.871085
vt -0.09116554 1.009428
vt -0.08302736 0.9857892
vt 0.09116554 1.009428
vt 0.08302736 0.9857892
vt 0.4933386 -0.3505706
vt 0.4687619 -0.3459892
vt -0.4933386 -0.3505706
vt -0.4687619 -0.3459892
vt 0.4021735 -0.6588573
vt 0.3792048 -0.6489858
vt -0.4021735 -0.6588573
vt -0.3792048 -0.6489858
vt 0.3412497 -1.032756
vt 0.3169383 -1.016165
vt -0.3412497 -1.032756
vt -0.3169383 -1.016165
vt -0.8640198 0.01249981
vt -0.8640198 -0.01250029
vt -0.8345866 -0.01250029
vt -0.8345866 0.01249981
vt 0.8345866 0.01249981
vt 0.8345866 -0.01250029
vt 0.8640198 -0.01250029
vt 0.8640198 0.01249981

vn -0.982231 0.187676 0
vn -1 3.740452E-09 0
vn 1 -6.358754E-08 0
vn 0.982246 -0.1875973 0
vn -0.9139915 0.4057332 0
vn 0.914129 -0.4054235 0
vn -0.7313396 0.6820135 9.91992E-07
vn 0.7321697 -0.6811221 0
vn -0.3040166 0.9526668 4.542652E-06
vn 0.3049174 -0.9523788 0
vn 0.3040161 0.9526669 3.522643E-06
vn -0.3049174 -0.9523788 0
vn 0.7313391 0.682014 0
vn -0.7321697 -0.6811221 0
vn 0.9139915 0.4057332 0
vn -0.9141289 -0.4054236 0
vn 0.982231 0.187676 0
vn -0.982246 -0.1875974 0
vn 0.9749007 -0.2226403 0
vn -0.9741914 0.2257236 0
vn 0.9869836 -0.1608212 0
vn -0.9859241 0.1671936 0
vn -0.9749007 -0.2226404 0
vn -0.9869838 -0.1608199 0
vn 0.9859241 0.1671936 0
vn 0.9741914 0.2257236 0
vn 0 0 1
vn 0 0 -1
vn 0.5636875 -0.8259881 0
vn -0.5636875 -0.8259881 0

usemtl Lit
f 3/3/1 4/4/2 2/2/2 1/1/1
f 7/7/3 8/8/4 6/6/4 5/5/3
f 10/11/5 3/12/1 1/10/1 9/9/5
f 8/15/4 12/16/6 11/14/6 6/13/4
f 14/19/7 10/20/5 9/18/5 13/17/7
f 12/23/6 16/24/8 15/22/8 11/21/6
f 18/27/9 14/28/7 13/26/7 17/25/9
f 16/31/8 20/32/10 19/30/10 15/29/8
f 22/35/11 18/36/9 17/34/9 21/33/11
f 20/39/10 24/40/12 23/38/12 19/37/10
f 26/43/13 22/44/11 21/42/11 25/41/13
f 24/47/12 28/48/14 27/46/14 23/45/12
f 30/18/15 26/50/13 25/49/13 29/20/15
f 28/52/14 32/21/16 31/23/16 27/51/14
f 34/10/17 30/9/15 29/11/15 33/12/17
f 32/14/16 36/13/18 35/15/18 31/16/16
f 38/2/3 34/1/17 33/3/17 37/4/3
f 36/6/18 40/5/2 39/7/2 35/8/18
f 42/55/4 38/56/3 37/54/3 41/53/4
f 40/59/2 44/60/1 43/58/1 39/57/2
f 46/63/19 42/64/4 41/62/4 45/61/19
f 44/67/1 48/68/20 47/66/20 43/65/1
f 50/71/21 46/72/19 45/70/19 49/69/21
f 48/75/20 52/76/22 51/74/22 47/73/20
f 55/70/23 56/78/24 54/77/24 53/72/23
f 59/80/25 60/73/26 58/75/26 57/79/25
f 62/62/18 55/61/23 53/63/23 61/64/18
f 60/66/26 64/65/17 63/67/17 58/68/26
f 4/54/2 62/53/18 61/55/18 2/56/2
f 64/58/17 7/57/3 5/59/3 63/60/17
f 5/83/27 6/84/27 1/82/27 2/81/27
f 8/87/28 7/88/28 4/86/28 3/85/28
f 6/84/27 11/90/27 9/89/27 1/82/27
f 12/92/28 8/87/28 3/85/28 10/91/28
f 11/90/27 15/94/27 13/93/27 9/89/27
f 16/96/28 12/92/28 10/91/28 14/95/28
f 15/94/27 19/98/27 17/97/27 13/93/27
f 20/100/28 16/96/28 14/95/28 18/99/28
f 19/98/27 23/100/27 21/99/27 17/97/27
f 24/98/28 20/100/28 18/99/28 22/97/28
f 23/100/27 27/96/27 25/95/27 21/99/27
f 28/94/28 24/98/28 22/97/28 26/93/28
f 27/96/27 31/92/27 29/91/27 25/95/27
f 32/90/28 28/94/28 26/93/28 30/89/28
f 31/92/27 35/87/27 33/85/27 29/91/27
f 36/84/28 32/90/28 30/89/28 34/82/28
f 35/87/27 39/88/27 37/86/27 33/85/27
f 40/83/28 36/84/28 34/82/28 38/81/28
f 39/88/27 43/102/27 41/101/27 37/86/27
f 44/104/28 40/83/28 38/81/28 42/103/28
f 43/102/27 47/106/27 45/105/27 41/101/27
f 48/108/28 44/104/28 42/103/28 46/107/28
f 47/106/27 51/110/27 49/109/27 45/105/27
f 52/112/28 48/108/28 46/107/28 50/111/28
f 57/112/27 58/108/27 53/107/27 54/111/27
f 60/106/28 59/110/28 56/109/28 55/105/28
f 58/108/27 63/104/27 61/103/27 53/107/27
f 64/102/28 60/106/28 55/105/28 62/101/28
f 63/104/27 5/83/27 2/81/27 61/103/27
f 7/88/28 64/102/28 62/101/28 4/86/28
f 59/115/29 57/116/29 54/113/29 56/114/29
f 50/119/30 49/120/30 51/117/30 52/118/30

