# ProBuilder 5.0.3
# https://unity3d.com/unity/features/worldbuilding/probuilder
# 7/30/2022 11:30:06 AM

mtllib ./PortalCilinder64_outline02.mtl
o PortalCilinder64_outline02

g PortalCilinder64_outline02
v -0.783946 0.4645064 0.01249981
v -0.8342581 0 0.01249981
v -0.783946 0.4645064 -0.01249981
v -0.8342581 0 -0.01249981
v -0.5 0 0.01249981
v -0.4687619 0.3459887 0.01249981
v -0.5 0 -0.01249981
v -0.4687619 0.3459887 -0.01249981
v -0.6390786 0.8729866 0.01249981
v -0.6390786 0.8729866 -0.01249981
v -0.3792048 0.6489858 0.01249981
v -0.3792048 0.6489858 -0.01249981
v -0.4171286 1.176171 0.01250029
v -0.4171286 1.176171 -0.01249981
v -0.2437987 0.871085 0.01250029
v -0.2437987 0.871085 -0.01249981
v -0.1448679 1.337493 0.01250029
v -0.1448679 1.337493 -0.01249981
v -0.08302736 0.9857892 0.01250029
v -0.08302736 0.9857892 -0.01249981
v 0.1448669 1.337493 0.01250029
v 0.1448669 1.337493 -0.01249981
v 0.08302736 0.9857892 0.01250029
v 0.08302736 0.9857892 -0.01249981
v 0.4171286 1.176171 0.01250029
v 0.4171286 1.176171 -0.01249981
v 0.2437987 0.871085 0.01250029
v 0.2437987 0.871085 -0.01249981
v 0.6390786 0.8729866 0.01249981
v 0.6390786 0.8729866 -0.01249981
v 0.3792048 0.6489858 0.01249981
v 0.3792048 0.6489858 -0.01249981
v 0.783946 0.4645064 0.01249981
v 0.783946 0.4645064 -0.01249981
v 0.4687619 0.3459892 0.01249981
v 0.4687619 0.3459892 -0.01249981
v 0.8342581 0 0.01249981
v 0.8342581 0 -0.01249981
v 0.5 0 0.01249981
v 0.5 0 -0.01249981
v 0.783946 -0.4645064 0.01249981
v 0.783946 -0.4645064 -0.01249981
v 0.4687619 -0.3459892 0.01249981
v 0.4687619 -0.3459892 -0.01249981
v 0.6390786 -0.8729865 0.01249981
v 0.6390786 -0.8729865 -0.01249981
v 0.3792048 -0.6489858 0.01249981
v 0.3792048 -0.6489858 -0.01249981
v 0.4171286 -1.176172 0.01249981
v 0.4171286 -1.176172 -0.01250029
v 0.2437987 -0.8710851 0.01249981
v 0.2437987 -0.8710851 -0.01250029
v 0.1448669 -1.337493 0.01249981
v 0.1448669 -1.337493 -0.01250029
v 0.08302736 -0.9857892 0.01249981
v 0.08302736 -0.9857892 -0.01250029
v -0.1448669 -1.337493 0.01249981
v -0.1448669 -1.337493 -0.01250029
v -0.08302736 -0.9857892 0.01249981
v -0.08302736 -0.9857892 -0.01250029
v -0.4171286 -1.176172 0.01249981
v -0.4171286 -1.176172 -0.01250029
v -0.2437987 -0.8710851 0.01249981
v -0.2437987 -0.8710851 -0.01250029
v -0.6390781 -0.8729865 0.01249981
v -0.6390781 -0.8729865 -0.01249981
v -0.3792048 -0.6489858 0.01249981
v -0.3792048 -0.6489858 -0.01249981
v -0.783946 -0.4645064 0.01249981
v -0.783946 -0.4645064 -0.01249981
v -0.4687619 -0.3459892 0.01249981
v -0.4687619 -0.3459892 -0.01249981

vt 0.01249981 0.3773877
vt 0.01249981 -0.0898355
vt -0.01249981 0.3773877
vt -0.01249981 -0.0898355
vt -0.01249981 -0.04496033
vt -0.01249981 0.3024357
vt 0.01249981 -0.04496033
vt 0.01249981 0.3024357
vt 0.01249981 0.6091626
vt 0.01249981 0.1757545
vt -0.01249981 0.6091626
vt -0.01249981 0.1757545
vt -0.01249981 0.1989287
vt -0.01249981 0.514884
vt 0.01249981 0.1989287
vt 0.01249981 0.514884
vt 0.01250029 0.7026491
vt 0.01249981 0.3269061
vt -0.01249981 0.7026491
vt -0.01249981 0.3269061
vt -0.01249981 0.356729
vt -0.01250029 0.6168498
vt 0.01249981 0.356729
vt 0.01249981 0.6168498
vt -0.5571685 0.01250029
vt -0.2407028 0.01250029
vt -0.5571685 -0.01249981
vt -0.2407028 -0.01249981
vt 0.3074561 0.01250029
vt 0.5049517 0.01250029
vt 0.3074561 -0.01249981
vt 0.5049517 -0.01249981
vt -0.1448669 0.01250029
vt 0.1448679 0.01250029
vt -0.1448669 -0.01249981
vt 0.1448679 -0.01249981
vt -0.08302736 0.01250029
vt 0.08302736 0.01250029
vt -0.08302736 -0.01249981
vt 0.08302736 -0.01249981
vt 0.2407009 0.01250029
vt 0.5571675 0.01250029
vt 0.2407009 -0.01249981
vt 0.5571675 -0.01249981
vt -0.5049517 0.01250029
vt -0.3074561 0.01250029
vt -0.5049517 -0.01249981
vt -0.3074561 -0.01249981
vt -0.01250029 0.7026491
vt 0.01249981 0.7026491
vt 0.01250029 0.6168498
vt -0.01249981 0.6168498
vt -0.01249981 -0.3773877
vt -0.01249981 0.08983549
vt 0.01249981 -0.3773877
vt 0.01249981 0.08983549
vt 0.01249981 0.04496027
vt 0.01249981 -0.3024363
vt -0.01249981 0.04496027
vt -0.01249981 -0.3024363
vt -0.01249981 -0.6091624
vt -0.01249981 -0.1757544
vt 0.01249981 -0.6091624
vt 0.01249981 -0.1757544
vt 0.01249981 -0.198929
vt 0.01249981 -0.5148838
vt -0.01249981 -0.198929
vt -0.01249981 -0.5148838
vt -0.01249981 -0.7026503
vt -0.01249981 -0.3269069
vt 0.01250029 -0.7026503
vt 0.01249981 -0.3269069
vt 0.01249981 -0.3567291
vt 0.01249981 -0.61685
vt -0.01249981 -0.3567291
vt -0.01250029 -0.61685
vt 0.3074562 0.01249981
vt 0.5049517 0.01249981
vt 0.3074562 -0.01250029
vt 0.5049517 -0.01250029
vt -0.08302736 0.01249981
vt 0.08302736 0.01249981
vt -0.08302736 -0.01250029
vt 0.08302736 -0.01250029
vt 0.2407 0.01249981
vt 0.5571663 0.01249981
vt 0.2407 -0.01250029
vt 0.5571662 -0.01250029
vt -0.5049517 0.01249981
vt -0.3074562 0.01249981
vt -0.5049517 -0.01250029
vt -0.3074562 -0.01250029
vt 0.01249981 -0.7026514
vt -0.01250029 -0.7026514
vt -0.01249981 -0.61685
vt 0.01250029 -0.61685
vt -0.8342581 0
vt -0.783946 0.4645064
vt -0.5 0
vt -0.4687619 0.3459887
vt 0.783946 0.4645064
vt 0.8342581 0
vt 0.4687619 0.3459887
vt 0.5 0
vt -0.6390786 0.8729866
vt -0.3792048 0.6489858
vt 0.6390786 0.8729866
vt 0.3792048 0.6489858
vt -0.4171286 1.176171
vt -0.2437987 0.871085
vt 0.4171286 1.176171
vt 0.2437987 0.871085
vt -0.1448679 1.337493
vt -0.08302736 0.9857892
vt 0.1448679 1.337493
vt 0.08302736 0.9857892
vt 0.783946 -0.4645064
vt 0.4687619 -0.3459892
vt -0.783946 -0.4645064
vt -0.4687619 -0.3459892
vt 0.6390786 -0.8729865
vt 0.3792048 -0.6489858
vt -0.6390786 -0.8729865
vt -0.3792048 -0.6489858
vt 0.4171286 -1.176172
vt 0.2437987 -0.8710851
vt -0.4171285 -1.176172
vt -0.2437987 -0.8710851
vt 0.1448669 -1.337493
vt 0.08302736 -0.9857892
vt -0.1448669 -1.337493
vt -0.08302736 -0.9857892

vn -0.9749385 0.2224744 0
vn -1 7.494157E-09 0
vn 1 -6.358754E-08 0
vn 0.982246 -0.1875973 0
vn -0.8840371 0.4674167 0
vn 0.914129 -0.4054235 0
vn -0.6719884 0.7405617 0
vn 0.7321697 -0.6811221 0
vn -0.2642759 0.9644471 0
vn 0.3049174 -0.9523788 0
vn 0.2642752 0.9644473 0
vn -0.3049174 -0.9523788 0
vn 0.6719878 0.7405623 0
vn -0.7321697 -0.6811221 0
vn 0.8840371 0.4674167 0
vn -0.9141289 -0.4054236 0
vn 0.9749385 0.2224744 0
vn -0.982246 -0.1875974 0
vn 0.9749385 -0.2224744 0
vn -0.982246 0.1875975 0
vn 0.8840373 -0.4674164 0
vn -0.914129 0.4054236 0
vn 0.6719876 -0.7405624 -2.093715E-06
vn -0.7321697 0.6811221 0
vn 0.2642747 -0.9644474 -9.197653E-06
vn -0.3049174 0.9523788 0
vn -0.2642746 -0.9644475 -7.070892E-06
vn 0.3049174 0.9523788 0
vn -0.6719881 -0.740562 0
vn 0.7321697 0.6811221 0
vn -0.8840373 -0.4674164 0
vn 0.914129 0.4054236 0
vn -0.9749384 -0.222475 0
vn 0.982246 0.1875975 0
vn 0 0 1
vn 0 0 -1

usemtl Lit
f 3/3/1 4/4/2 2/2/2 1/1/1
f 7/7/3 8/8/4 6/6/4 5/5/3
f 10/11/5 3/12/1 1/10/1 9/9/5
f 8/15/4 12/16/6 11/14/6 6/13/4
f 14/19/7 10/20/5 9/18/5 13/17/7
f 12/23/6 16/24/8 15/22/8 11/21/6
f 18/27/9 14/28/7 13/26/7 17/25/9
f 16/31/8 20/32/10 19/30/10 15/29/8
f 22/35/11 18/36/9 17/34/9 21/33/11
f 20/39/10 24/40/12 23/38/12 19/37/10
f 26/43/13 22/44/11 21/42/11 25/41/13
f 24/47/12 28/48/14 27/46/14 23/45/12
f 30/18/15 26/50/13 25/49/13 29/20/15
f 28/52/14 32/21/16 31/23/16 27/51/14
f 34/10/17 30/9/15 29/11/15 33/12/17
f 32/14/16 36/13/18 35/15/18 31/16/16
f 38/2/3 34/1/17 33/3/17 37/4/3
f 36/6/18 40/5/2 39/7/2 35/8/18
f 42/55/19 38/56/3 37/54/3 41/53/19
f 40/59/2 44/60/20 43/58/20 39/57/2
f 46/63/21 42/64/19 41/62/19 45/61/21
f 44/67/20 48/68/22 47/66/22 43/65/20
f 50/71/23 46/72/21 45/70/21 49/69/23
f 48/75/22 52/76/24 51/74/24 47/73/22
f 54/27/25 50/28/23 49/26/23 53/25/25
f 52/79/24 56/80/26 55/78/26 51/77/24
f 58/35/27 54/36/25 53/34/25 57/33/27
f 56/83/26 60/84/28 59/82/28 55/81/26
f 62/87/29 58/88/27 57/86/27 61/85/29
f 60/91/28 64/92/30 63/90/30 59/89/28
f 66/70/31 62/94/29 61/93/29 65/72/31
f 64/96/30 68/73/32 67/75/32 63/95/30
f 70/62/33 66/61/31 65/63/31 69/64/33
f 68/66/32 72/65/34 71/67/34 67/68/32
f 4/54/2 70/53/33 69/55/33 2/56/2
f 72/58/34 7/57/3 5/59/3 71/60/34
f 5/99/35 6/100/35 1/98/35 2/97/35
f 8/103/36 7/104/36 4/102/36 3/101/36
f 6/100/35 11/106/35 9/105/35 1/98/35
f 12/108/36 8/103/36 3/101/36 10/107/36
f 11/106/35 15/110/35 13/109/35 9/105/35
f 16/112/36 12/108/36 10/107/36 14/111/36
f 15/110/35 19/114/35 17/113/35 13/109/35
f 20/116/36 16/112/36 14/111/36 18/115/36
f 19/114/35 23/116/35 21/115/35 17/113/35
f 24/114/36 20/116/36 18/115/36 22/113/36
f 23/116/35 27/112/35 25/111/35 21/115/35
f 28/110/36 24/114/36 22/113/36 26/109/36
f 27/112/35 31/108/35 29/107/35 25/111/35
f 32/106/36 28/110/36 26/109/36 30/105/36
f 31/108/35 35/103/35 33/101/35 29/107/35
f 36/100/36 32/106/36 30/105/36 34/98/36
f 35/103/35 39/104/35 37/102/35 33/101/35
f 40/99/36 36/100/36 34/98/36 38/97/36
f 39/104/35 43/118/35 41/117/35 37/102/35
f 44/120/36 40/99/36 38/97/36 42/119/36
f 43/118/35 47/122/35 45/121/35 41/117/35
f 48/124/36 44/120/36 42/119/36 46/123/36
f 47/122/35 51/126/35 49/125/35 45/121/35
f 52/128/36 48/124/36 46/123/36 50/127/36
f 51/126/35 55/130/35 53/129/35 49/125/35
f 56/132/36 52/128/36 50/127/36 54/131/36
f 55/130/35 59/132/35 57/131/35 53/129/35
f 60/130/36 56/132/36 54/131/36 58/129/36
f 59/132/35 63/128/35 61/127/35 57/131/35
f 64/126/36 60/130/36 58/129/36 62/125/36
f 63/128/35 67/124/35 65/123/35 61/127/35
f 68/122/36 64/126/36 62/125/36 66/121/36
f 67/124/35 71/120/35 69/119/35 65/123/35
f 72/118/36 68/122/36 66/121/36 70/117/36
f 71/120/35 5/99/35 2/97/35 69/119/35
f 7/104/36 72/118/36 70/117/36 4/102/36

